<mxfile host="app.diagrams.net" modified="2024-08-09T22:01:35.675Z" agent="Mozilla/5.0 (Windows NT 10.0; Win64; x64) AppleWebKit/537.36 (KHTML, like Gecko) Chrome/127.0.0.0 Safari/537.36" etag="YBfUbQjE4d6ViEC-y6QL" version="24.6.4" type="github">
  <diagram id="6a731a19-8d31-9384-78a2-239565b7b9f0" name="Page-1">
    <mxGraphModel dx="1050" dy="617" grid="1" gridSize="10" guides="1" tooltips="1" connect="1" arrows="1" fold="1" page="1" pageScale="1" pageWidth="1169" pageHeight="827" background="none" math="0" shadow="0">
      <root>
        <mxCell id="0" />
        <mxCell id="1" parent="0" />
        <mxCell id="1363" style="endArrow=none;strokeWidth=6;strokeColor=#6c8ebf;html=1;fillColor=#dae8fc;shadow=1;" parent="1" source="1515" target="1516" edge="1">
          <mxGeometry relative="1" as="geometry" />
        </mxCell>
        <mxCell id="1515" value="The Alliance" style="ellipse;whiteSpace=wrap;html=1;shadow=1;fontFamily=Helvetica;fontSize=30;fontColor=#2F5B7C;align=center;strokeColor=#2F5B7C;strokeWidth=6;fillColor=#FFFFFF;fontStyle=1;gradientColor=none;" parent="1" vertex="1">
          <mxGeometry x="961" y="676.5" width="270" height="270" as="geometry" />
        </mxCell>
        <mxCell id="1516" value="Cameramen" style="ellipse;whiteSpace=wrap;html=1;shadow=1;fontFamily=Helvetica;fontSize=20;align=center;strokeWidth=3;fillColor=#dae8fc;strokeColor=#6c8ebf;gradientColor=#00FFFF;" parent="1" vertex="1">
          <mxGeometry x="312" y="721.5" width="120" height="120" as="geometry" />
        </mxCell>
        <mxCell id="rcJq9EcaqIxGS28sy-gM-1543" value="" style="edgeStyle=none;endArrow=none;strokeWidth=3;strokeColor=#6c8ebf;html=1;fillColor=#dae8fc;shadow=1;" edge="1" parent="1">
          <mxGeometry x="188.5" y="51.5" width="100" height="100" as="geometry">
            <mxPoint x="370.5" y="723.5" as="sourcePoint" />
            <mxPoint x="371" y="700" as="targetPoint" />
          </mxGeometry>
        </mxCell>
        <mxCell id="rcJq9EcaqIxGS28sy-gM-1544" value="Size" style="ellipse;whiteSpace=wrap;html=1;shadow=1;fontFamily=Helvetica;fontSize=20;align=center;strokeWidth=3;fillColor=#dae8fc;strokeColor=#6c8ebf;gradientColor=#00FFFF;" vertex="1" parent="1">
          <mxGeometry x="325.25" y="616.5" width="93.5" height="90" as="geometry" />
        </mxCell>
        <mxCell id="rcJq9EcaqIxGS28sy-gM-1548" value="" style="edgeStyle=none;endArrow=none;strokeWidth=3;strokeColor=#6c8ebf;html=1;fillColor=#dae8fc;shadow=1;" edge="1" parent="1">
          <mxGeometry x="188.5" y="51.5" width="100" height="100" as="geometry">
            <mxPoint x="330" y="643" as="sourcePoint" />
            <mxPoint x="304.75" y="616.5" as="targetPoint" />
            <Array as="points">
              <mxPoint x="314.75" y="626.5" />
            </Array>
          </mxGeometry>
        </mxCell>
        <mxCell id="rcJq9EcaqIxGS28sy-gM-1549" value="Normal" style="ellipse;whiteSpace=wrap;html=1;shadow=1;fontFamily=Helvetica;fontSize=20;align=center;strokeWidth=3;fillColor=#dae8fc;strokeColor=#6c8ebf;gradientColor=#00FFFF;" vertex="1" parent="1">
          <mxGeometry x="260" y="556.5" width="70" height="66.5" as="geometry" />
        </mxCell>
        <mxCell id="rcJq9EcaqIxGS28sy-gM-1551" value="Large" style="ellipse;whiteSpace=wrap;html=1;shadow=1;fontFamily=Helvetica;fontSize=20;align=center;strokeWidth=3;fillColor=#dae8fc;strokeColor=#6c8ebf;gradientColor=#00FFFF;" vertex="1" parent="1">
          <mxGeometry x="353.5" y="530" width="70" height="66.5" as="geometry" />
        </mxCell>
        <mxCell id="rcJq9EcaqIxGS28sy-gM-1555" value="" style="edgeStyle=none;endArrow=none;strokeWidth=3;strokeColor=#6c8ebf;html=1;fillColor=#dae8fc;entryX=0.5;entryY=1;entryDx=0;entryDy=0;shadow=1;" edge="1" parent="1" target="rcJq9EcaqIxGS28sy-gM-1551">
          <mxGeometry x="188.5" y="51.5" width="100" height="100" as="geometry">
            <mxPoint x="380" y="616.5" as="sourcePoint" />
            <mxPoint x="380.5" y="593" as="targetPoint" />
          </mxGeometry>
        </mxCell>
        <mxCell id="rcJq9EcaqIxGS28sy-gM-1556" value="Normal Cameraman" style="rounded=1;whiteSpace=wrap;html=1;fillColor=#dae8fc;strokeColor=#6c8ebf;gradientColor=#00FFFF;strokeWidth=3;shadow=1;glass=0;" vertex="1" parent="1">
          <mxGeometry x="130" y="574.88" width="110" height="29.75" as="geometry" />
        </mxCell>
        <mxCell id="rcJq9EcaqIxGS28sy-gM-1558" value="" style="edgeStyle=none;endArrow=none;strokeWidth=3;strokeColor=#6c8ebf;html=1;fillColor=#dae8fc;shadow=1;" edge="1" parent="1">
          <mxGeometry x="188.5" y="51.5" width="100" height="100" as="geometry">
            <mxPoint x="260" y="589.5" as="sourcePoint" />
            <mxPoint x="240" y="590" as="targetPoint" />
          </mxGeometry>
        </mxCell>
        <mxCell id="rcJq9EcaqIxGS28sy-gM-1559" value="" style="edgeStyle=none;endArrow=none;strokeWidth=3;strokeColor=#6c8ebf;html=1;fillColor=#dae8fc;shadow=1;entryX=0.5;entryY=1;entryDx=0;entryDy=0;exitX=1;exitY=0;exitDx=0;exitDy=0;" edge="1" parent="1" source="rcJq9EcaqIxGS28sy-gM-1551" target="rcJq9EcaqIxGS28sy-gM-1560">
          <mxGeometry x="188.5" y="51.5" width="100" height="100" as="geometry">
            <mxPoint x="382" y="530" as="sourcePoint" />
            <mxPoint x="370" y="510" as="targetPoint" />
          </mxGeometry>
        </mxCell>
        <mxCell id="rcJq9EcaqIxGS28sy-gM-1560" value="Large Cameraman" style="rounded=1;whiteSpace=wrap;html=1;fillColor=#dae8fc;strokeColor=#6c8ebf;gradientColor=#00FFFF;strokeWidth=3;shadow=1;glass=0;" vertex="1" parent="1">
          <mxGeometry x="390" y="480" width="110" height="29.75" as="geometry" />
        </mxCell>
        <mxCell id="rcJq9EcaqIxGS28sy-gM-1561" value="Titan Cameraman" style="rounded=1;whiteSpace=wrap;html=1;fillColor=#dae8fc;strokeColor=#6c8ebf;gradientColor=#00FFFF;strokeWidth=3;shadow=1;glass=0;" vertex="1" parent="1">
          <mxGeometry x="170" y="631.56" width="110" height="29.75" as="geometry" />
        </mxCell>
        <mxCell id="rcJq9EcaqIxGS28sy-gM-1562" value="" style="edgeStyle=none;endArrow=none;strokeWidth=3;strokeColor=#6c8ebf;html=1;fillColor=#dae8fc;shadow=1;" edge="1" parent="1" target="rcJq9EcaqIxGS28sy-gM-1563">
          <mxGeometry x="188.5" y="51.5" width="100" height="100" as="geometry">
            <mxPoint x="325.25" y="661.37" as="sourcePoint" />
            <mxPoint x="305.25" y="661.87" as="targetPoint" />
          </mxGeometry>
        </mxCell>
        <mxCell id="rcJq9EcaqIxGS28sy-gM-1563" value="Upgraded Titan Cameraman (2.0)" style="rounded=1;whiteSpace=wrap;html=1;fillColor=#dae8fc;strokeColor=#6c8ebf;gradientColor=#00FFFF;strokeWidth=3;shadow=1;glass=0;" vertex="1" parent="1">
          <mxGeometry x="170" y="661.68" width="110" height="29.75" as="geometry" />
        </mxCell>
        <mxCell id="rcJq9EcaqIxGS28sy-gM-1564" value="Upgraded Titan Cameraman (3.0)" style="rounded=1;whiteSpace=wrap;html=1;fillColor=#dae8fc;strokeColor=#6c8ebf;gradientColor=#00FFFF;strokeWidth=3;shadow=1;glass=0;" vertex="1" parent="1">
          <mxGeometry x="170" y="691.75" width="110" height="29.75" as="geometry" />
        </mxCell>
        <mxCell id="rcJq9EcaqIxGS28sy-gM-1565" value="" style="edgeStyle=none;endArrow=none;strokeWidth=3;strokeColor=#6c8ebf;html=1;fillColor=#dae8fc;shadow=1;exitX=0;exitY=0;exitDx=0;exitDy=0;" edge="1" parent="1" source="rcJq9EcaqIxGS28sy-gM-1549">
          <mxGeometry x="188.5" y="51.5" width="100" height="100" as="geometry">
            <mxPoint x="270" y="544.62" as="sourcePoint" />
            <mxPoint x="250" y="545.12" as="targetPoint" />
          </mxGeometry>
        </mxCell>
        <mxCell id="rcJq9EcaqIxGS28sy-gM-1566" value="Elite Cameraman" style="rounded=1;whiteSpace=wrap;html=1;fillColor=#dae8fc;strokeColor=#6c8ebf;gradientColor=#00FFFF;strokeWidth=3;shadow=1;glass=0;" vertex="1" parent="1">
          <mxGeometry x="140" y="530" width="110" height="29.75" as="geometry" />
        </mxCell>
        <mxCell id="rcJq9EcaqIxGS28sy-gM-1567" value="Spy" style="ellipse;whiteSpace=wrap;html=1;shadow=1;fontFamily=Helvetica;fontSize=20;align=center;strokeWidth=3;fillColor=#dae8fc;strokeColor=#6c8ebf;gradientColor=#00FFFF;" vertex="1" parent="1">
          <mxGeometry x="230" y="730" width="70" height="66.5" as="geometry" />
        </mxCell>
        <mxCell id="rcJq9EcaqIxGS28sy-gM-1569" value="" style="edgeStyle=none;endArrow=none;strokeWidth=3;strokeColor=#6c8ebf;html=1;fillColor=#dae8fc;shadow=1;" edge="1" parent="1" source="rcJq9EcaqIxGS28sy-gM-1567" target="1516">
          <mxGeometry x="188.5" y="51.5" width="100" height="100" as="geometry">
            <mxPoint x="294.5" y="745" as="sourcePoint" />
            <mxPoint x="295" y="721.5" as="targetPoint" />
          </mxGeometry>
        </mxCell>
        <mxCell id="rcJq9EcaqIxGS28sy-gM-1570" value="" style="edgeStyle=none;endArrow=none;strokeWidth=3;strokeColor=#6c8ebf;html=1;fillColor=#dae8fc;shadow=1;exitX=0;exitY=0;exitDx=0;exitDy=0;" edge="1" parent="1">
          <mxGeometry x="188.5" y="51.5" width="100" height="100" as="geometry">
            <mxPoint x="230" y="766" as="sourcePoint" />
            <mxPoint x="210" y="770" as="targetPoint" />
          </mxGeometry>
        </mxCell>
        <mxCell id="rcJq9EcaqIxGS28sy-gM-1571" value="Camera Van" style="rounded=1;whiteSpace=wrap;html=1;fillColor=#dae8fc;strokeColor=#6c8ebf;gradientColor=#00FFFF;strokeWidth=3;shadow=1;glass=0;" vertex="1" parent="1">
          <mxGeometry x="100" y="760" width="110" height="29.75" as="geometry" />
        </mxCell>
        <mxCell id="rcJq9EcaqIxGS28sy-gM-1572" value="" style="edgeStyle=none;endArrow=none;strokeWidth=3;strokeColor=#6c8ebf;html=1;fillColor=#dae8fc;shadow=1;exitX=0;exitY=0;exitDx=0;exitDy=0;entryX=1;entryY=0.5;entryDx=0;entryDy=0;" edge="1" parent="1" target="rcJq9EcaqIxGS28sy-gM-1573">
          <mxGeometry x="188.5" y="51.5" width="100" height="100" as="geometry">
            <mxPoint x="260" y="795.75" as="sourcePoint" />
            <mxPoint x="240" y="799.75" as="targetPoint" />
          </mxGeometry>
        </mxCell>
        <mxCell id="rcJq9EcaqIxGS28sy-gM-1573" value="Camera Spy Drone" style="rounded=1;whiteSpace=wrap;html=1;fillColor=#dae8fc;strokeColor=#6c8ebf;gradientColor=#00FFFF;strokeWidth=3;shadow=1;glass=0;" vertex="1" parent="1">
          <mxGeometry x="110" y="797" width="110" height="29.75" as="geometry" />
        </mxCell>
        <mxCell id="rcJq9EcaqIxGS28sy-gM-1574" value="" style="edgeStyle=none;endArrow=none;strokeWidth=3;strokeColor=#6c8ebf;html=1;fillColor=#dae8fc;shadow=1;entryX=0;entryY=1;entryDx=0;entryDy=0;exitX=0.77;exitY=0.087;exitDx=0;exitDy=0;exitPerimeter=0;" edge="1" parent="1" source="rcJq9EcaqIxGS28sy-gM-1575" target="1516">
          <mxGeometry x="188.5" y="51.5" width="100" height="100" as="geometry">
            <mxPoint x="295.25" y="934" as="sourcePoint" />
            <mxPoint x="295.75" y="910.5" as="targetPoint" />
          </mxGeometry>
        </mxCell>
        <mxCell id="rcJq9EcaqIxGS28sy-gM-1575" value="Vehicle" style="ellipse;whiteSpace=wrap;html=1;shadow=1;fontFamily=Helvetica;fontSize=20;align=center;strokeWidth=3;fillColor=#dae8fc;strokeColor=#6c8ebf;gradientColor=#00FFFF;" vertex="1" parent="1">
          <mxGeometry x="231.75" y="827" width="93.5" height="90" as="geometry" />
        </mxCell>
        <mxCell id="rcJq9EcaqIxGS28sy-gM-1576" value="" style="edgeStyle=none;endArrow=none;strokeWidth=3;strokeColor=#6c8ebf;html=1;fillColor=#dae8fc;shadow=1;exitX=0;exitY=0;exitDx=0;exitDy=0;entryX=1;entryY=0.5;entryDx=0;entryDy=0;" edge="1" parent="1" target="rcJq9EcaqIxGS28sy-gM-1577">
          <mxGeometry x="188.5" y="51.5" width="100" height="100" as="geometry">
            <mxPoint x="231.75" y="880" as="sourcePoint" />
            <mxPoint x="211.75" y="884" as="targetPoint" />
          </mxGeometry>
        </mxCell>
        <mxCell id="rcJq9EcaqIxGS28sy-gM-1577" value="Camera Dropship" style="rounded=1;whiteSpace=wrap;html=1;fillColor=#dae8fc;strokeColor=#6c8ebf;gradientColor=#00FFFF;strokeWidth=3;shadow=1;glass=0;" vertex="1" parent="1">
          <mxGeometry x="100" y="857.13" width="110" height="29.75" as="geometry" />
        </mxCell>
        <mxCell id="rcJq9EcaqIxGS28sy-gM-1578" value="" style="edgeStyle=none;endArrow=none;strokeWidth=3;strokeColor=#6c8ebf;html=1;fillColor=#dae8fc;shadow=1;entryX=1;entryY=0.5;entryDx=0;entryDy=0;" edge="1" parent="1" target="rcJq9EcaqIxGS28sy-gM-1579" source="rcJq9EcaqIxGS28sy-gM-1575">
          <mxGeometry x="188.5" y="51.5" width="100" height="100" as="geometry">
            <mxPoint x="241.75" y="922.87" as="sourcePoint" />
            <mxPoint x="221.75" y="926.87" as="targetPoint" />
          </mxGeometry>
        </mxCell>
        <mxCell id="rcJq9EcaqIxGS28sy-gM-1579" value="&lt;div&gt;Camera Helicopter&lt;/div&gt;" style="rounded=1;whiteSpace=wrap;html=1;fillColor=#dae8fc;strokeColor=#6c8ebf;gradientColor=#00FFFF;strokeWidth=3;shadow=1;glass=0;" vertex="1" parent="1">
          <mxGeometry x="110" y="900" width="110" height="29.75" as="geometry" />
        </mxCell>
        <mxCell id="rcJq9EcaqIxGS28sy-gM-1580" value="" style="edgeStyle=none;endArrow=none;strokeWidth=3;strokeColor=#6c8ebf;html=1;fillColor=#dae8fc;shadow=1;exitX=1;exitY=0;exitDx=0;exitDy=0;" edge="1" parent="1" source="1516" target="rcJq9EcaqIxGS28sy-gM-1581">
          <mxGeometry x="188.5" y="51.5" width="100" height="100" as="geometry">
            <mxPoint x="477.25" y="747" as="sourcePoint" />
            <mxPoint x="477.75" y="723.5" as="targetPoint" />
          </mxGeometry>
        </mxCell>
        <mxCell id="rcJq9EcaqIxGS28sy-gM-1581" value="Scientist" style="ellipse;whiteSpace=wrap;html=1;shadow=1;fontFamily=Helvetica;fontSize=20;align=center;strokeWidth=3;fillColor=#dae8fc;strokeColor=#6c8ebf;gradientColor=#00FFFF;" vertex="1" parent="1">
          <mxGeometry x="432" y="661.31" width="93.5" height="90" as="geometry" />
        </mxCell>
        <mxCell id="rcJq9EcaqIxGS28sy-gM-1582" value="" style="edgeStyle=none;endArrow=none;strokeWidth=3;strokeColor=#6c8ebf;html=1;fillColor=#dae8fc;shadow=1;exitX=0.5;exitY=0;exitDx=0;exitDy=0;" edge="1" parent="1" source="rcJq9EcaqIxGS28sy-gM-1581" target="rcJq9EcaqIxGS28sy-gM-1583">
          <mxGeometry x="188.5" y="51.5" width="100" height="100" as="geometry">
            <mxPoint x="479" y="670" as="sourcePoint" />
            <mxPoint x="473.5" y="641.6800000000001" as="targetPoint" />
          </mxGeometry>
        </mxCell>
        <mxCell id="rcJq9EcaqIxGS28sy-gM-1583" value="Scientist Cameraman" style="rounded=1;whiteSpace=wrap;html=1;fillColor=#dae8fc;strokeColor=#6c8ebf;gradientColor=#00FFFF;strokeWidth=3;shadow=1;glass=0;" vertex="1" parent="1">
          <mxGeometry x="432" y="616.5000000000001" width="110" height="29.75" as="geometry" />
        </mxCell>
        <mxCell id="rcJq9EcaqIxGS28sy-gM-1584" value="" style="edgeStyle=none;endArrow=none;strokeWidth=3;strokeColor=#6c8ebf;html=1;fillColor=#dae8fc;shadow=1;exitX=0.5;exitY=0;exitDx=0;exitDy=0;entryX=1;entryY=0.5;entryDx=0;entryDy=0;" edge="1" parent="1" source="rcJq9EcaqIxGS28sy-gM-1549" target="rcJq9EcaqIxGS28sy-gM-1585">
          <mxGeometry x="188.5" y="51.5" width="100" height="100" as="geometry">
            <mxPoint x="290" y="526" as="sourcePoint" />
            <mxPoint x="270" y="505.12" as="targetPoint" />
          </mxGeometry>
        </mxCell>
        <mxCell id="rcJq9EcaqIxGS28sy-gM-1585" value="Photo Cameraman" style="rounded=1;whiteSpace=wrap;html=1;fillColor=#dae8fc;strokeColor=#6c8ebf;gradientColor=#00FFFF;strokeWidth=3;shadow=1;glass=0;" vertex="1" parent="1">
          <mxGeometry x="160" y="490" width="110" height="29.75" as="geometry" />
        </mxCell>
        <mxCell id="rcJq9EcaqIxGS28sy-gM-1586" value="" style="edgeStyle=none;endArrow=none;strokeWidth=3;strokeColor=#6c8ebf;html=1;fillColor=#dae8fc;shadow=1;entryX=0.5;entryY=1;entryDx=0;entryDy=0;exitX=1;exitY=0;exitDx=0;exitDy=0;" edge="1" parent="1" target="rcJq9EcaqIxGS28sy-gM-1587" source="rcJq9EcaqIxGS28sy-gM-1549">
          <mxGeometry x="188.5" y="51.5" width="100" height="100" as="geometry">
            <mxPoint x="345" y="519.75" as="sourcePoint" />
            <mxPoint x="320" y="467.87" as="targetPoint" />
          </mxGeometry>
        </mxCell>
        <mxCell id="rcJq9EcaqIxGS28sy-gM-1587" value="Plungerman" style="rounded=1;whiteSpace=wrap;html=1;fillColor=#dae8fc;strokeColor=#6c8ebf;gradientColor=#00FFFF;strokeWidth=3;shadow=1;glass=0;" vertex="1" parent="1">
          <mxGeometry x="240" y="450.25" width="110" height="29.75" as="geometry" />
        </mxCell>
        <mxCell id="rcJq9EcaqIxGS28sy-gM-1588" value="" style="edgeStyle=none;endArrow=none;strokeWidth=3;strokeColor=#6c8ebf;html=1;fillColor=#dae8fc;shadow=1;entryX=0.5;entryY=1;entryDx=0;entryDy=0;exitX=1;exitY=0.5;exitDx=0;exitDy=0;" edge="1" parent="1" target="rcJq9EcaqIxGS28sy-gM-1589" source="rcJq9EcaqIxGS28sy-gM-1549">
          <mxGeometry x="188.5" y="51.5" width="100" height="100" as="geometry">
            <mxPoint x="440" y="545.75" as="sourcePoint" />
            <mxPoint x="440" y="447.62" as="targetPoint" />
          </mxGeometry>
        </mxCell>
        <mxCell id="rcJq9EcaqIxGS28sy-gM-1589" value="Surveillance Camerawoman" style="rounded=1;whiteSpace=wrap;html=1;fillColor=#dae8fc;strokeColor=#6c8ebf;gradientColor=#00FFFF;strokeWidth=3;shadow=1;glass=0;" vertex="1" parent="1">
          <mxGeometry x="330" y="414" width="110" height="29.75" as="geometry" />
        </mxCell>
      </root>
    </mxGraphModel>
  </diagram>
</mxfile>
